<?xml version="1.0" encoding="UTF-8"?>
<svg version="1.1" xmlns="http://www.w3.org/2000/svg" width="63" height="63">
<path d="M0 0 C7.95313861 4.64416853 13.21234729 11.46516688 16.140625 20.25 C16.88759404 30.24871418 17.14803979 38.75952043 11.140625 47.25 C10.52380859 48.21292969 10.52380859 48.21292969 9.89453125 49.1953125 C5.44998239 55.28843289 -1.47450503 59.37240861 -8.90869141 60.58398438 C-18.17278671 61.49802501 -26.06886741 60.71702287 -33.859375 55.25 C-34.931875 54.528125 -36.004375 53.80625 -37.109375 53.0625 C-44.53419075 45.46893844 -47.14708619 37.82826061 -47.1784668 27.44360352 C-47.07648726 21.60576862 -46.00357809 17.23521675 -42.859375 12.25 C-42.50875 11.62867188 -42.158125 11.00734375 -41.796875 10.3671875 C-33.20299046 -3.41883561 -14.13433744 -6.73955163 0 0 Z " fill="#B4BDC2" transform="translate(46.859375,2.75)"/>
<path d="M0 0 C0.598125 0.20625 1.19625 0.4125 1.8125 0.625 C2.3075 2.605 2.3075 2.605 2.8125 4.625 C3.4725 4.625 4.1325 4.625 4.8125 4.625 C4.72495449 6.37591019 4.61676627 8.12579551 4.5 9.875 C4.41298828 11.33679688 4.41298828 11.33679688 4.32421875 12.828125 C3.75817854 15.92190205 3.0302837 17.41248419 0.8125 19.625 C-0.1775 19.625 -1.1675 19.625 -2.1875 19.625 C-2.1875 20.285 -2.1875 20.945 -2.1875 21.625 C-1.5275 21.955 -0.8675 22.285 -0.1875 22.625 C-0.8475 22.625 -1.5075 22.625 -2.1875 22.625 C-1.5275 23.615 -0.8675 24.605 -0.1875 25.625 C2.88623463 24.99628155 5.14507408 24.50074371 7.1015625 21.93359375 C8.07450476 20.20119657 8.95054683 18.41521043 9.8125 16.625 C10.410625 17.264375 11.00875 17.90375 11.625 18.5625 C13.72060337 20.82810389 13.72060337 20.82810389 16.8125 21.625 C16.4825 22.945 16.1525 24.265 15.8125 25.625 C15.3175 24.14 15.3175 24.14 14.8125 22.625 C12.30802484 21.40630071 12.30802484 21.40630071 9.8125 20.625 C8.8225 22.275 7.8325 23.925 6.8125 25.625 C7.4725 25.625 8.1325 25.625 8.8125 25.625 C9.4725 24.635 10.1325 23.645 10.8125 22.625 C10.8125 24.275 10.8125 25.925 10.8125 27.625 C7.95072943 29.05588528 5.87874227 28.22491697 2.8125 27.625 C2.70374614 28.9935791 2.70374614 28.9935791 4.75 30.875 C6.84202731 33.66436975 7.72133444 35.16070871 7.8125 38.625 C6.5 40.4375 6.5 40.4375 4.8125 41.625 C4.1525 41.625 3.4925 41.625 2.8125 41.625 C3.575625 42.388125 4.33875 43.15125 5.125 43.9375 C7.02083333 45.83333333 8.91666667 47.72916667 10.8125 49.625 C9.42073368 50.58923026 8.0238777 51.54611602 6.625 52.5 C5.84769531 53.03367188 5.07039063 53.56734375 4.26953125 54.1171875 C-3.20129209 58.70182631 -11.66081413 58.66014948 -20.1875 57.625 C-23.970558 56.48062496 -26.96977569 54.89927505 -30.1875 52.625 C-30.77917969 52.21765625 -31.37085938 51.8103125 -31.98046875 51.390625 C-35.55583822 48.67157859 -37.95404057 45.49060285 -40.1875 41.625 C-40.1875 40.965 -40.1875 40.305 -40.1875 39.625 C-36.7225 39.13 -36.7225 39.13 -33.1875 38.625 C-33.1875 37.965 -33.1875 37.305 -33.1875 36.625 C-34.5075 36.295 -35.8275 35.965 -37.1875 35.625 C-36.506875 35.13 -36.506875 35.13 -35.8125 34.625 C-33.71735567 32.04636083 -33.34409799 29.68302972 -32.71484375 26.46484375 C-32.1875 24.625 -32.1875 24.625 -30.1875 22.625 C-29.8575 25.595 -29.5275 28.565 -29.1875 31.625 C-30.6725 32.12 -30.6725 32.12 -32.1875 32.625 C-31.6615625 34.11 -31.6615625 34.11 -31.125 35.625 C-29.87816308 39.88865913 -30.4263784 43.28660688 -31.1875 47.625 C-30.07375 47.274375 -28.96 46.92375 -27.8125 46.5625 C-24.1875 45.625 -24.1875 45.625 -22.1875 46.625 C-22.1875 45.965 -22.1875 45.305 -22.1875 44.625 C-23.6725 44.13 -23.6725 44.13 -25.1875 43.625 C-25.1875 42.965 -25.1875 42.305 -25.1875 41.625 C-21.8875 40.965 -18.5875 40.305 -15.1875 39.625 C-15.88875 39.068125 -16.59 38.51125 -17.3125 37.9375 C-20.30094261 35.53375268 -23.24690238 33.08689568 -26.1875 30.625 C-19.55737382 23.7580836 -19.55737382 23.7580836 -15.171875 23.33203125 C-14.10453125 23.36683594 -13.0371875 23.40164062 -11.9375 23.4375 C-10.85984375 23.46457031 -9.7821875 23.49164062 -8.671875 23.51953125 C-7.85203125 23.55433594 -7.0321875 23.58914062 -6.1875 23.625 C-5.6925 22.14 -5.6925 22.14 -5.1875 20.625 C-4.5275 20.625 -3.8675 20.625 -3.1875 20.625 C-2.6925 19.14 -2.6925 19.14 -2.1875 17.625 C-2.6825 16.635 -2.6825 16.635 -3.1875 15.625 C-3.227492 13.62539988 -3.23096799 11.62452758 -3.1875 9.625 C-2.5275 9.625 -1.8675 9.625 -1.1875 9.625 C-2.5075 6.985 -3.8275 4.345 -5.1875 1.625 C-2.1875 -0.375 -2.1875 -0.375 0 0 Z " fill="#707A85" transform="translate(43.1875,5.375)"/>
<path d="M0 0 C9.40467528 1.70994096 16.08654138 6.03146489 21.7109375 13.77734375 C25.17463239 19.74959342 26.55807674 24.46486564 26.5 31.3125 C26.49718018 32.05653076 26.49436035 32.80056152 26.49145508 33.56713867 C26.24804921 41.88908573 22.9721955 47.51135778 18 54 C14.56072421 52.7580393 11.74792181 51.44259716 9 49 C9 48.34 9 47.68 9 47 C11 45.375 11 45.375 13 44 C12.58578031 39.16743695 10.53586014 37.17320782 7 34 C10 32 10 32 13.1875 32.375 C14.115625 32.58125 15.04375 32.7875 16 33 C14.8509288 31.7018576 14.8509288 31.7018576 12 31 C13.32 29.02 14.64 27.04 16 25 C16.495 25.99 16.495 25.99 17 27 C17.99 27.2475 17.99 27.2475 19 27.5 C19.99 27.7475 19.99 27.7475 21 28 C21.495 28.99 21.495 28.99 22 30 C22.495 28.515 22.495 28.515 23 27 C22.401875 26.896875 21.80375 26.79375 21.1875 26.6875 C18.71756736 25.91123545 17.67748765 24.92911079 16 23 C15.484375 24.11375 14.96875 25.2275 14.4375 26.375 C13.19467053 28.59594075 12.47129124 29.76485898 10.17578125 30.91015625 C8.25 31.4375 8.25 31.4375 5 32 C4.505 28.535 4.505 28.535 4 25 C4.62390625 24.80664062 5.2478125 24.61328125 5.890625 24.4140625 C8.30713529 23.10186813 8.30713529 23.10186813 9.046875 19.9609375 C9.39492187 18.18589844 9.39492187 18.18589844 9.75 16.375 C9.99234375 15.18648437 10.2346875 13.99796875 10.484375 12.7734375 C10.65453125 11.85820312 10.8246875 10.94296875 11 10 C10.34 10 9.68 10 9 10 C8.505 8.02 8.505 8.02 8 6 C6.35 6.33 4.7 6.66 3 7 C3 7.99 3 8.98 3 10 C3.66 10.66 4.32 11.32 5 12 C5 12.99 5 13.98 5 15 C4.34 15 3.68 15 3 15 C2.67 15.99 2.34 16.98 2 18 C1.505 14.04 1.505 14.04 1 10 C0.01 10 -0.98 10 -2 10 C-2.33 10.99 -2.66 11.98 -3 13 C-3.99 13 -4.98 13 -6 13 C-5.42415568 10.61435923 -4.77772405 8.33317216 -4 6 C-8.67899253 7.83620038 -11.67345467 11.60192602 -15.02148438 15.1875 C-16.29464041 16.51144218 -17.64352211 17.76156675 -19 19 C-19.99 19 -20.98 19 -22 19 C-22.061875 20.051875 -22.12375 21.10375 -22.1875 22.1875 C-23.13408616 26.6291735 -24.59156258 28.11593757 -28 31 C-28.99 30.67 -29.98 30.34 -31 30 C-30.34 28.35 -29.68 26.7 -29 25 C-28.34 25 -27.68 25 -27 25 C-25.49069817 21.6136749 -25.49069817 21.6136749 -25 18 C-25 16.33333333 -25 14.66666667 -25 13 C-24.01 13 -23.02 13 -22 13 C-22 10.69 -22 8.38 -22 6 C-21.01 6.33 -20.02 6.66 -19 7 C-19 8.65 -19 10.3 -19 12 C-17.68 11.01 -16.36 10.02 -15 9 C-15.33 7.68 -15.66 6.36 -16 5 C-11.8794254 3.00214565 -8.54805635 2.82164485 -4 3 C-3.67 2.34 -3.34 1.68 -3 1 C-2.01 1.66 -1.02 2.32 0 3 C0 2.01 0 1.02 0 0 Z " fill="#6A818D" transform="translate(37,0)"/>
<path d="M0 0 C1.875 0.3125 1.875 0.3125 4 1 C6 4 6 4 5.875 6.0625 C4.7413007 8.57283417 3.51381062 9.02691202 1 10 C1.763125 10.763125 2.52625 11.52625 3.3125 12.3125 C5.20833333 14.20833333 7.10416667 16.10416667 9 18 C7.60823368 18.96423026 6.2113777 19.92111602 4.8125 20.875 C4.03519531 21.40867187 3.25789063 21.94234375 2.45703125 22.4921875 C-1.44272067 24.88535799 -4.7063108 26.28114201 -9.3125 26.125 C-10.529375 26.08375 -11.74625 26.0425 -13 26 C-13.33 25.01 -13.66 24.02 -14 23 C-15.84971696 21.94978897 -15.84971696 21.94978897 -18 21 C-19.35113205 20.02418241 -20.68946944 19.02970259 -22 18 C-22 18.66 -22 19.32 -22 20 C-22.66 20 -23.32 20 -24 20 C-24 19.01 -24 18.02 -24 17 C-23.22076172 16.63648438 -23.22076172 16.63648438 -22.42578125 16.265625 C-14.76360763 12.71039185 -14.76360763 12.71039185 -9.6875 6.25 C-8 4 -8 4 -6.0390625 3.68359375 C-4.02328374 3.6871302 -2.00904416 3.83532425 0 4 C0 2.68 0 1.36 0 0 Z " fill="#383C47" transform="translate(45,37)"/>
<path d="M0 0 C7.03613939 3.85312395 11.60175077 10.356265 14 18 C15.19690709 30.43523469 13.71111143 38.93711265 6 49 C2.56072421 47.7580393 -0.25207819 46.44259716 -3 44 C-3 43.34 -3 42.68 -3 42 C-1 40.375 -1 40.375 1 39 C0.58578031 34.16743695 -1.46413986 32.17320782 -5 29 C-2 27 -2 27 1.1875 27.375 C2.5796875 27.684375 2.5796875 27.684375 4 28 C2.8509288 26.7018576 2.8509288 26.7018576 0 26 C1.32 24.02 2.64 22.04 4 20 C4.33 20.66 4.66 21.32 5 22 C5.66 22.165 6.32 22.33 7 22.5 C7.66 22.665 8.32 22.83 9 23 C9.33 23.66 9.66 24.32 10 25 C10.33 24.01 10.66 23.02 11 22 C10.38125 21.896875 9.7625 21.79375 9.125 21.6875 C7 21 7 21 5 18 C4.25449266 15.50184712 3.57019402 13.02596471 2.9375 10.5 C1.59312952 5.2146954 1.59312952 5.2146954 0 0 Z " fill="#7F9CA6" transform="translate(49,5)"/>
<path d="M0 0 C1.15242188 0.01804688 2.30484375 0.03609375 3.4921875 0.0546875 C4.36101563 0.07789063 5.22984375 0.10109375 6.125 0.125 C6.125 1.115 6.125 2.105 6.125 3.125 C4.805 3.125 3.485 3.125 2.125 3.125 C0.57572968 3.39731202 -0.96670317 3.71122631 -2.5 4.0625 C-3.66402344 4.32353516 -3.66402344 4.32353516 -4.8515625 4.58984375 C-6.92328247 5.06428529 -6.92328247 5.06428529 -8.875 6.125 C-8.875 7.445 -8.875 8.765 -8.875 10.125 C-11.375 11.875 -11.375 11.875 -13.875 13.125 C-13.875 11.145 -13.875 9.165 -13.875 7.125 C-14.535 6.795 -15.195 6.465 -15.875 6.125 C-15.875 8.435 -15.875 10.745 -15.875 13.125 C-16.865 13.125 -17.855 13.125 -18.875 13.125 C-18.875 14.775 -18.875 16.425 -18.875 18.125 C-18.215 18.455 -17.555 18.785 -16.875 19.125 C-18.1489589 21.16333424 -19.48561923 23.16352126 -20.875 25.125 C-21.535 25.125 -22.195 25.125 -22.875 25.125 C-23.55458603 27.52219432 -23.55458603 27.52219432 -23.875 30.125 C-23.215 30.785 -22.555 31.445 -21.875 32.125 C-21.625 35.625 -21.625 35.625 -21.875 39.125 C-22.535 39.785 -23.195 40.445 -23.875 41.125 C-22.885 41.455 -21.895 41.785 -20.875 42.125 C-20.875 42.785 -20.875 43.445 -20.875 44.125 C-23.515 44.455 -26.155 44.785 -28.875 45.125 C-32.22033661 38.22022523 -32.05163147 28.68524196 -30.15234375 21.32421875 C-29.21042659 19.1162429 -28.15456352 17.15378164 -26.875 15.125 C-26.524375 14.50367188 -26.17375 13.88234375 -25.8125 13.2421875 C-20.15692332 4.16969991 -10.45031807 -0.2132718 0 0 Z " fill="#F5F3F1" transform="translate(30.875,-0.125)"/>
<path d="M0 0 C1.85776765 3.13498292 2.20140476 5.37471432 2 9 C1.01 9.33 0.02 9.66 -1 10 C-0.649375 10.99 -0.29875 11.98 0.0625 13 C1.30933692 17.26365913 0.7611216 20.66160688 0 25 C1.0725 24.608125 2.145 24.21625 3.25 23.8125 C7 23 7 23 9.4375 24.375 C9.953125 24.91125 10.46875 25.4475 11 26 C10.34 26 9.68 26 9 26 C9 26.99 9 27.98 9 29 C9.66 29 10.32 29 11 29 C11 28.34 11 27.68 11 27 C14.81715086 28.55513553 17.22707442 30.99599728 20 34 C20 34.33 20 34.66 20 35 C11.04509954 35.72216939 4.68985213 33.04354397 -2.375 27.5625 C-5.10432199 24.89816187 -7.09374053 22.29929524 -9 19 C-9 18.34 -9 17.68 -9 17 C-5.535 16.505 -5.535 16.505 -2 16 C-2 15.34 -2 14.68 -2 14 C-3.32 13.67 -4.64 13.34 -6 13 C-5.54625 12.67 -5.0925 12.34 -4.625 12 C-2.53182435 9.42378382 -2.11021891 7.04550488 -1.4296875 3.83984375 C-1 2 -1 2 0 0 Z " fill="#6A7F8D" transform="translate(12,28)"/>
<path d="M0 0 C0.8971875 0.309375 0.8971875 0.309375 1.8125 0.625 C2.1425 1.945 2.4725 3.265 2.8125 4.625 C3.4725 4.625 4.1325 4.625 4.8125 4.625 C4.72495449 6.37591019 4.61676627 8.12579551 4.5 9.875 C4.44199219 10.84953125 4.38398437 11.8240625 4.32421875 12.828125 C3.75817854 15.92190205 3.0302837 17.41248419 0.8125 19.625 C-0.1775 19.625 -1.1675 19.625 -2.1875 19.625 C-2.1875 20.285 -2.1875 20.945 -2.1875 21.625 C-1.5275 21.955 -0.8675 22.285 -0.1875 22.625 C-0.8475 22.625 -1.5075 22.625 -2.1875 22.625 C-1.5275 23.615 -0.8675 24.605 -0.1875 25.625 C2.88623463 24.99628155 5.14507408 24.50074371 7.1015625 21.93359375 C8.07450476 20.20119657 8.95054683 18.41521043 9.8125 16.625 C10.410625 17.264375 11.00875 17.90375 11.625 18.5625 C13.72060337 20.82810389 13.72060337 20.82810389 16.8125 21.625 C16.4825 22.945 16.1525 24.265 15.8125 25.625 C15.4825 24.635 15.1525 23.645 14.8125 22.625 C12.30802484 21.40630071 12.30802484 21.40630071 9.8125 20.625 C8.8225 22.275 7.8325 23.925 6.8125 25.625 C7.4725 25.625 8.1325 25.625 8.8125 25.625 C9.4725 24.635 10.1325 23.645 10.8125 22.625 C10.8125 24.275 10.8125 25.925 10.8125 27.625 C7.95072943 29.05588528 5.87874227 28.22491697 2.8125 27.625 C2.75979537 28.99393239 2.75979537 28.99393239 3.8125 31.625 C3.1525 31.625 2.4925 31.625 1.8125 31.625 C1.8125 32.945 1.8125 34.265 1.8125 35.625 C-0.4975 35.625 -2.8075 35.625 -5.1875 35.625 C-5.1875 35.295 -5.1875 34.965 -5.1875 34.625 C-3.2075 34.625 -1.2275 34.625 0.8125 34.625 C0.4825 32.645 0.1525 30.665 -0.1875 28.625 C-3.1575 28.625 -6.1275 28.625 -9.1875 28.625 C-9.5175 27.965 -9.8475 27.305 -10.1875 26.625 C-9.1975 26.625 -8.2075 26.625 -7.1875 26.625 C-6.5275 24.645 -5.8675 22.665 -5.1875 20.625 C-4.5275 20.625 -3.8675 20.625 -3.1875 20.625 C-2.8575 19.635 -2.5275 18.645 -2.1875 17.625 C-2.5175 16.965 -2.8475 16.305 -3.1875 15.625 C-3.227492 13.62539988 -3.23096799 11.62452758 -3.1875 9.625 C-2.5275 9.625 -1.8675 9.625 -1.1875 9.625 C-2.5075 6.985 -3.8275 4.345 -5.1875 1.625 C-2.1875 -0.375 -2.1875 -0.375 0 0 Z " fill="#5D717C" transform="translate(43.1875,5.375)"/>
<path d="M0 0 C4.59760144 1.47359021 8.13450389 4.46207074 11.8125 7.5 C11.4825 8.16 11.1525 8.82 10.8125 9.5 C7.44721927 10.03417154 4.21622484 10.5 0.8125 10.5 C1.3075 10.95375 1.8025 11.4075 2.3125 11.875 C3.8125 13.5 3.8125 13.5 3.8125 15.5 C2.1728125 15.7165625 2.1728125 15.7165625 0.5 15.9375 C-3.11872987 16.38288104 -3.11872987 16.38288104 -6.1875 17.5 C-6.06181641 16.64728516 -6.06181641 16.64728516 -5.93359375 15.77734375 C-5.26839803 10.73364455 -5.2306163 6.49705931 -6.1875 1.5 C-3.1875 -0.5 -3.1875 -0.5 0 0 Z " fill="#CBC7CC" transform="translate(17.1875,36.5)"/>
<path d="M0 0 C2.35626384 2.86590518 3.67853152 5.38962733 4.75 8.9375 C5.01296875 9.77152344 5.2759375 10.60554687 5.546875 11.46484375 C6.41920434 16.34537603 4.76040538 20.32717972 2.3203125 24.484375 C-0.00737993 27.15640063 -2.5888524 27.40960907 -6 28 C-6.33 25.69 -6.66 23.38 -7 21 C-6.071875 20.7525 -6.071875 20.7525 -5.125 20.5 C-2.37865124 18.56140087 -2.03890256 16.65043444 -1.37109375 13.44140625 C-0.69298664 8.98017527 -0.31432636 4.49982996 0 0 Z " fill="#7B95A1" transform="translate(48,4)"/>
<path d="M0 0 C1.75163456 3.77222089 2.22490027 6.666639 2.125 10.8125 C2.10695313 11.78832031 2.08890625 12.76414062 2.0703125 13.76953125 C2.03550781 14.87361328 2.03550781 14.87361328 2 16 C-2.00735217 15.39889717 -4.55469371 13.33397972 -7.75 10.9375 C-8.73484375 10.20402344 -9.7196875 9.47054687 -10.734375 8.71484375 C-11.48203125 8.14894531 -12.2296875 7.58304688 -13 7 C-5.58117348 -0.46509779 -5.58117348 -0.46509779 0 0 Z " fill="#272B36" transform="translate(30,29)"/>
<path d="M0 0 C7.11154146 3.89441556 11.45524085 10.34193974 14 18 C14.1953125 20.45703125 14.1953125 20.45703125 14.125 22.8125 C14.10695313 23.60269531 14.08890625 24.39289062 14.0703125 25.20703125 C14.03550781 26.09455078 14.03550781 26.09455078 14 27 C13.01 26.67 12.02 26.34 11 26 C11 24.68 11 23.36 11 22 C10.38125 21.896875 9.7625 21.79375 9.125 21.6875 C7 21 7 21 5 18 C4.25449266 15.50184712 3.57019402 13.02596471 2.9375 10.5 C1.59312952 5.2146954 1.59312952 5.2146954 0 0 Z " fill="#FBFBFB" transform="translate(49,5)"/>
<path d="M0 0 C0.33 0.66 0.66 1.32 1 2 C3.02463255 2.65213292 3.02463255 2.65213292 5 3 C5.93619813 6.15506142 6.1057123 8.96586502 6.0625 12.25 C6.05347656 13.14203125 6.04445313 14.0340625 6.03515625 14.953125 C6.02355469 15.62859375 6.01195312 16.3040625 6 17 C4.68 17 3.36 17 2 17 C1.34 17.99 0.68 18.98 0 20 C-0.48210938 19.37351562 -0.96421875 18.74703125 -1.4609375 18.1015625 C-2.09257813 17.28429687 -2.72421875 16.46703125 -3.375 15.625 C-4.00148438 14.81289063 -4.62796875 14.00078125 -5.2734375 13.1640625 C-6.96773494 10.95776805 -6.96773494 10.95776805 -9 9 C-6 7 -6 7 -2.8125 7.375 C-1.884375 7.58125 -0.95625 7.7875 0 8 C-1.1490712 6.7018576 -1.1490712 6.7018576 -4 6 C-2.68 4.02 -1.36 2.04 0 0 Z " fill="#D8D4D5" transform="translate(53,25)"/>
<path d="M0 0 C0.99 0.33 1.98 0.66 3 1 C3.87987606 3.38066801 4.57258894 5.61481901 5.1875 8.0625 C5.36474609 8.72572266 5.54199219 9.38894531 5.72460938 10.07226562 C6.16105196 11.71187426 6.58200219 13.35559238 7 15 C6.34 15 5.68 15 5 15 C5 15.66 5 16.32 5 17 C4.34 17 3.68 17 3 17 C2.67 18.32 2.34 19.64 2 21 C0 19 0 19 -0.125 15.375 C-0.08375 14.26125 -0.0425 13.1475 0 12 C-1.32 11.67 -2.64 11.34 -4 11 C-4 10.01 -4 9.02 -4 8 C-4.66 7.67 -5.32 7.34 -6 7 C-6.33 7.99 -6.66 8.98 -7 10 C-7.33 8.02 -7.66 6.04 -8 4 C-5.69 4 -3.38 4 -1 4 C-0.67 2.68 -0.34 1.36 0 0 Z " fill="#92B0B9" transform="translate(35,9)"/>
<path d="M0 0 C0 0.99 0 1.98 0 3 C-0.66 3.66 -1.32 4.32 -2 5 C-1.401875 5.103125 -0.80375 5.20625 -0.1875 5.3125 C2.31258286 6.09824033 3.37535082 6.96918853 5 9 C5 9.66 5 10.32 5 11 C5.639375 11.28875 6.27875 11.5775 6.9375 11.875 C9 13 9 13 10 15 C6.78548731 16.60725635 3.56387464 16.05748185 0 16 C-0.33 15.01 -0.66 14.02 -1 13 C-2.84971696 11.94978897 -2.84971696 11.94978897 -5 11 C-6.35113205 10.02418241 -7.68946944 9.02970259 -9 8 C-9 8.66 -9 9.32 -9 10 C-9.66 10 -10.32 10 -11 10 C-11 9.01 -11 8.02 -11 7 C-10.18595703 6.61908203 -10.18595703 6.61908203 -9.35546875 6.23046875 C-8.64003906 5.88628906 -7.92460937 5.54210938 -7.1875 5.1875 C-6.47980469 4.85105469 -5.77210937 4.51460937 -5.04296875 4.16796875 C-2.98870965 2.99354529 -1.58383722 1.74371984 0 0 Z " fill="#262B36" transform="translate(32,47)"/>
<path d="M0 0 C0.598125 0.20625 1.19625 0.4125 1.8125 0.625 C2.1425 1.945 2.4725 3.265 2.8125 4.625 C3.4725 4.625 4.1325 4.625 4.8125 4.625 C4.69820603 6.39655654 4.57066963 8.16726229 4.4375 9.9375 C4.36789063 10.92363281 4.29828125 11.90976562 4.2265625 12.92578125 C3.8125 15.625 3.8125 15.625 1.8125 18.625 C-0.125 18.25 -0.125 18.25 -2.1875 17.625 C-3.54189668 14.91620665 -3.25251451 12.61566732 -3.1875 9.625 C-2.5275 9.625 -1.8675 9.625 -1.1875 9.625 C-2.5075 6.985 -3.8275 4.345 -5.1875 1.625 C-2.1875 -0.375 -2.1875 -0.375 0 0 Z " fill="#39333C" transform="translate(43.1875,5.375)"/>
<path d="M0 0 C1.65 0.33 3.3 0.66 5 1 C5.1953125 7.0546875 5.1953125 7.0546875 5 9 C4.34 9.66 3.68 10.32 3 11 C3.99 11.33 4.98 11.66 6 12 C6 12.66 6 13.32 6 14 C3.36 14.33 0.72 14.66 -2 15 C-3.60355101 11.49223216 -4.22036864 8.85645121 -4 5 C-2.68 4.34 -1.36 3.68 0 3 C0 2.01 0 1.02 0 0 Z " fill="#B0B1B4" transform="translate(4,30)"/>
<path d="M0 0 C0 0.99 0 1.98 0 3 C-1.32 3 -2.64 3 -4 3 C-5.54927032 3.27231202 -7.09170317 3.58622631 -8.625 3.9375 C-9.78902344 4.19853516 -9.78902344 4.19853516 -10.9765625 4.46484375 C-13.04828247 4.93928529 -13.04828247 4.93928529 -15 6 C-15 7.32 -15 8.64 -15 10 C-17.5 11.75 -17.5 11.75 -20 13 C-20 11.02 -20 9.04 -20 7 C-20.66 6.67 -21.32 6.34 -22 6 C-21 3 -21 3 -17.75 1.3125 C-11.98989188 -0.70564007 -6.01820833 -0.24770065 0 0 Z " fill="#EAE5E2" transform="translate(37,0)"/>
<path d="M0 0 C0.99 0.33 1.98 0.66 3 1 C2.91621094 1.61488281 2.83242188 2.22976562 2.74609375 2.86328125 C2.64425781 3.67152344 2.54242188 4.47976562 2.4375 5.3125 C2.33308594 6.11300781 2.22867187 6.91351563 2.12109375 7.73828125 C1.85244822 10.16817116 1.85244822 10.16817116 3 13 C2.01 13 1.02 13 0 13 C-0.061875 14.051875 -0.12375 15.10375 -0.1875 16.1875 C-1.13408616 20.6291735 -2.59156258 22.11593757 -6 25 C-6.99 24.67 -7.98 24.34 -9 24 C-8.34 22.35 -7.68 20.7 -7 19 C-6.34 19 -5.68 19 -5 19 C-3.49069817 15.6136749 -3.49069817 15.6136749 -3 12 C-3 10.33333333 -3 8.66666667 -3 7 C-2.01 7 -1.02 7 0 7 C0 4.69 0 2.38 0 0 Z " fill="#70646A" transform="translate(15,6)"/>
<path d="M0 0 C0.598125 0.33 1.19625 0.66 1.8125 1 C4.05386471 2.20787988 4.05386471 2.20787988 7 2 C7 3.32 7 4.64 7 6 C6.34 6 5.68 6 5 6 C5.495 6.45375 5.99 6.9075 6.5 7.375 C8 9 8 9 8 11 C6.3603125 11.2165625 6.3603125 11.2165625 4.6875 11.4375 C1.06877013 11.88288104 1.06877013 11.88288104 -2 13 C-1.85851011 11.3954444 -1.71164314 9.79136233 -1.5625 8.1875 C-1.48128906 7.29417969 -1.40007813 6.40085937 -1.31640625 5.48046875 C-1 3 -1 3 0 0 Z " fill="#B0C0C9" transform="translate(13,41)"/>
<path d="M0 0 C2.0625 0.4375 2.0625 0.4375 4 1 C4.16682272 5.92127034 4.24828052 9.50343896 2 14 C-2.455 14.495 -2.455 14.495 -7 15 C-5 11 -5 11 -3 10 C-3 10.66 -3 11.32 -3 12 C-2.34 11.67 -1.68 11.34 -1 11 C-1.01160156 10.28972656 -1.02320313 9.57945313 -1.03515625 8.84765625 C-1.04869141 7.46900391 -1.04869141 7.46900391 -1.0625 6.0625 C-1.07410156 5.14597656 -1.08570313 4.22945312 -1.09765625 3.28515625 C-1 1 -1 1 0 0 Z " fill="#94ABB3" transform="translate(59,31)"/>
<path d="M0 0 C1.32 0.33 2.64 0.66 4 1 C4.33 3.97 4.66 6.94 5 10 C3.3954444 9.85851011 1.79136233 9.71164314 0.1875 9.5625 C-0.70582031 9.48128906 -1.59914063 9.40007813 -2.51953125 9.31640625 C-5 9 -5 9 -8 8 C-8 7.34 -8 6.68 -8 6 C-7.01 6 -6.02 6 -5 6 C-5 5.34 -5 4.68 -5 4 C-3.02 4 -1.04 4 1 4 C0.67 2.68 0.34 1.36 0 0 Z " fill="#DFCED1" transform="translate(31,20)"/>
<path d="M0 0 C1.98 0.66 3.96 1.32 6 2 C6 4.66666667 6 7.33333333 6 10 C3.03 9.505 3.03 9.505 0 9 C0 9.66 0 10.32 0 11 C-1.32 11.33 -2.64 11.66 -4 12 C-4 11.01 -4 10.02 -4 9 C-3.01 8.67 -2.02 8.34 -1 8 C-2.32 8 -3.64 8 -5 8 C-5 7.01 -5 6.02 -5 5 C-2.525 5.495 -2.525 5.495 0 6 C0 4.02 0 2.04 0 0 Z " fill="#BAB2B6" transform="translate(26,15)"/>
<path d="M0 0 C0.33 0 0.66 0 1 0 C1 2.31 1 4.62 1 7 C0.01 7 -0.98 7 -2 7 C-2 8.65 -2 10.3 -2 12 C-1.34 12.33 -0.68 12.66 0 13 C-1.32 14.32 -2.64 15.64 -4 17 C-4.66 16.67 -5.32 16.34 -6 16 C-5.67 12.04 -5.34 8.08 -5 4 C-3.68 3.67 -2.36 3.34 -1 3 C-0.67 2.01 -0.34 1.02 0 0 Z " fill="#DCCECB" transform="translate(14,6)"/>
<path d="M0 0 C1.11623524 2.73985012 1.0708004 3.81414895 0 6.625 C-2.64654468 9.76777181 -5.05098102 10.18039229 -9 11 C-9.33 8.69 -9.66 6.38 -10 4 C-8.1875 2.9375 -8.1875 2.9375 -6 2 C-5.01 2.33 -4.02 2.66 -3 3 C-2.34 3 -1.68 3 -1 3 C-0.67 2.01 -0.34 1.02 0 0 Z " fill="#8DA8B1" transform="translate(51,21)"/>
<path d="M0 0 C2.1875 0.3125 2.1875 0.3125 4 1 C4.33 2.32 4.66 3.64 5 5 C5.66 5 6.32 5 7 5 C7 6.65 7 8.3 7 10 C4.29068581 9.84518205 2.53415961 9.51827919 0.5546875 7.59765625 C-0.67679642 6.10228292 -1.8429837 4.5537076 -3 3 C-1.75 1.4375 -1.75 1.4375 0 0 Z " fill="#363846" transform="translate(41,5)"/>
<path d="M0 0 C2.97 0.495 2.97 0.495 6 1 C5.67 1.66 5.34 2.32 5 3 C4.34 2.67 3.68 2.34 3 2 C3.75150023 5.27773504 3.75150023 5.27773504 7 7 C4.12835434 9.70272533 2.69008159 10.94791837 -1.3125 11.25 C-2.199375 11.1675 -3.08625 11.085 -4 11 C-3.67 10.01 -3.34 9.02 -3 8 C-2.67 8 -2.34 8 -2 8 C-2 7.34 -2 6.68 -2 6 C-1.34 5.67 -0.68 5.34 0 5 C0 3.35 0 1.7 0 0 Z " fill="#78838A" transform="translate(19,22)"/>
<path d="M0 0 C0.99 0 1.98 0 3 0 C3.12375 0.639375 3.2475 1.27875 3.375 1.9375 C3.58125 2.618125 3.7875 3.29875 4 4 C4.66 4.33 5.32 4.66 6 5 C3.36 7.64 0.72 10.28 -2 13 C-2.99 12.01 -3.98 11.02 -5 10 C-1.25 5.125 -1.25 5.125 1 4 C0.67 2.68 0.34 1.36 0 0 Z " fill="#6B909F" transform="translate(21,5)"/>
<path d="M0 0 C3.37462715 0.54723683 5.08235 1.0549 8 3 C8.1875 6.125 8.1875 6.125 8 9 C7.34 9 6.68 9 6 9 C5.67 7.68 5.34 6.36 5 5 C2.36 5.33 -0.28 5.66 -3 6 C-3.33 5.01 -3.66 4.02 -4 3 C-3.01 2.67 -2.02 2.34 -1 2 C-0.67 1.34 -0.34 0.68 0 0 Z " fill="#46738A" transform="translate(40,1)"/>
<path d="M0 0 C1 3 1 3 -0.4375 6.1875 C-1.2109375 7.5796875 -1.2109375 7.5796875 -2 9 C-0.02 8.67 1.96 8.34 4 8 C4 8.66 4 9.32 4 10 C1.36 10.33 -1.28 10.66 -4 11 C-6.125 6.375 -6.125 6.375 -5 3 C-2.4375 1.3125 -2.4375 1.3125 0 0 Z " fill="#DAD3D2" transform="translate(6,34)"/>
<path d="M0 0 C0.33 0.66 0.66 1.32 1 2 C3.02463255 2.65213292 3.02463255 2.65213292 5 3 C5.86476686 5.42134721 6.1422798 6.60873054 5.25 9.0625 C4.00556581 10.99137299 2.69452571 12.45952209 1 14 C1.33 11.69 1.66 9.38 2 7 C1.01 7 0.02 7 -1 7 C-1.99 6.67 -2.98 6.34 -4 6 C-2.68 4.02 -1.36 2.04 0 0 Z " fill="#CAC5C7" transform="translate(53,25)"/>
<path d="M0 0 C3.81715086 1.55513553 6.22707442 3.99599728 9 7 C9 7.33 9 7.66 9 8 C6.03 8 3.06 8 0 8 C-1.43088528 5.13822943 -0.59991697 3.06624227 0 0 Z " fill="#B7B6BF" transform="translate(23,55)"/>
<path d="M0 0 C3.875 1.75 3.875 1.75 5 4 C5.07033769 5.87379605 5.0843022 7.75001102 5.0625 9.625 C5.05347656 10.62789062 5.04445313 11.63078125 5.03515625 12.6640625 C5.02355469 13.43492188 5.01195312 14.20578125 5 15 C3.0625 14.625 3.0625 14.625 1 14 C0.67 13.34 0.34 12.68 0 12 C0.99 12 1.98 12 3 12 C1.87548273 9.0280615 0.77706209 6.66559313 -1 4 C-0.625 1.8125 -0.625 1.8125 0 0 Z " fill="#1D222E" transform="translate(27,30)"/>
<path d="M0 0 C4.15269956 4.58228917 7 9.73448807 7 16 C4 15 4 15 2 12 C0.62895352 7.88686057 -0.26318799 4.34260182 0 0 Z " fill="#D3D2D3" transform="translate(52,11)"/>
<path d="M0 0 C3.13506611 0.33589994 4.025249 1.02665172 6.25 3.375 C8 6 8 6 8 9 C7.34 9 6.68 9 6 9 C5.67 9.99 5.34 10.98 5 12 C4.67 9.36 4.34 6.72 4 4 C3.01 4 2.02 4 1 4 C0.67 4.99 0.34 5.98 0 7 C-0.99 7 -1.98 7 -3 7 C-2.38722388 4.03824877 -1.74627478 2.61941217 0 0 Z " fill="#72939D" transform="translate(34,6)"/>
<path d="M0 0 C4.29 0 8.58 0 13 0 C13 0.99 13 1.98 13 3 C11.68 3 10.36 3 9 3 C6.91202744 3.3029183 4.82863078 3.638499 2.75 4 C1.67234375 4.185625 0.5946875 4.37125 -0.515625 4.5625 C-1.33546875 4.706875 -2.1553125 4.85125 -3 5 C-2.34 4.67 -1.68 4.34 -1 4 C-0.67 2.68 -0.34 1.36 0 0 Z " fill="#C6C6C6" transform="translate(24,0)"/>
<path d="M0 0 C0.639375 0.2475 1.27875 0.495 1.9375 0.75 C2.2675 1.74 2.5975 2.73 2.9375 3.75 C2.2775 3.75 1.6175 3.75 0.9375 3.75 C0.9375 4.41 0.9375 5.07 0.9375 5.75 C0.2775 5.75 -0.3825 5.75 -1.0625 5.75 C-1.3925 7.07 -1.7225 8.39 -2.0625 9.75 C-4.0625 7.75 -4.0625 7.75 -4.1875 4.125 C-4.14625 3.01125 -4.105 1.8975 -4.0625 0.75 C-2.0625 -0.25 -2.0625 -0.25 0 0 Z " fill="#929EA6" transform="translate(39.0625,20.25)"/>
<path d="M0 0 C1.9375 0.3125 1.9375 0.3125 4 1 C4.33 1.99 4.66 2.98 5 4 C4.34 4 3.68 4 3 4 C3 4.66 3 5.32 3 6 C2.34 6 1.68 6 1 6 C0.67 6.99 0.34 7.98 0 9 C-1.32 7.68 -2.64 6.36 -4 5 C-2.68 4.67 -1.36 4.34 0 4 C0 2.68 0 1.36 0 0 Z " fill="#48525E" transform="translate(45,37)"/>
<path d="M0 0 C2.475 0.99 2.475 0.99 5 2 C4.67 2.99 4.34 3.98 4 5 C3.34 5 2.68 5 2 5 C2.33 5.99 2.66 6.98 3 8 C2.34 8.66 1.68 9.32 1 10 C0.01 10 -0.98 10 -2 10 C-2 8.35 -2 6.7 -2 5 C-1.34 4.67 -0.68 4.34 0 4 C0 2.68 0 1.36 0 0 Z " fill="#EEECEA" transform="translate(2,25)"/>
<path d="M0 0 C0.99 0.33 1.98 0.66 3 1 C3.33 2.98 3.66 4.96 4 7 C1.69 8.32 -0.62 9.64 -3 11 C-3 10.34 -3 9.68 -3 9 C-2.34 9 -1.68 9 -1 9 C-1.020625 7.88625 -1.04125 6.7725 -1.0625 5.625 C-1 2 -1 2 0 0 Z " fill="#87A3AD" transform="translate(50,15)"/>
<path d="M0 0 C2.31 0 4.62 0 7 0 C6.67 2.97 6.34 5.94 6 9 C0.42857143 3.85714286 0.42857143 3.85714286 0 0 Z " fill="#476473" transform="translate(3,45)"/>
<path d="M0 0 C0.99 0.33 1.98 0.66 3 1 C3 1.66 3 2.32 3 3 C3.99 3.33 4.98 3.66 6 4 C5.01 5.485 5.01 5.485 4 7 C0.62496331 5.8141763 -1.64722731 4.72426311 -4 2 C-2.68 2 -1.36 2 0 2 C0 1.34 0 0.68 0 0 Z " fill="#A2B3B9" transform="translate(51,47)"/>
<path d="M0 0 C0.66 0 1.32 0 2 0 C1.67 0.99 1.34 1.98 1 3 C2.98 3.66 4.96 4.32 7 5 C7 6.32 7 7.64 7 9 C1.25 7.25 1.25 7.25 -1 5 C-0.625 2.375 -0.625 2.375 0 0 Z " fill="#68626A" transform="translate(38,42)"/>
<path d="M0 0 C0.99 0 1.98 0 3 0 C3.33 1.98 3.66 3.96 4 6 C1.69 6.33 -0.62 6.66 -3 7 C-2.25 2.25 -2.25 2.25 0 0 Z " fill="#E9D9DB" transform="translate(40,34)"/>
<path d="M0 0 C-0.33 1.32 -0.66 2.64 -1 4 C-3.3125 4.625 -3.3125 4.625 -6 5 C-6.99 4.34 -7.98 3.68 -9 3 C-9 2.34 -9 1.68 -9 1 C-6.04335481 -0.4783226 -3.25770263 -0.06032783 0 0 Z " fill="#818996" transform="translate(27,46)"/>
<path d="M0 0 C0.66 0.33 1.32 0.66 2 1 C2.625 4.0625 2.625 4.0625 3 7 C1.68 7 0.36 7 -1 7 C-1.66 7.99 -2.32 8.98 -3 10 C-3.33 8.35 -3.66 6.7 -4 5 C-3.01 4.34 -2.02 3.68 -1 3 C-0.67 2.01 -0.34 1.02 0 0 Z " fill="#E7E2E2" transform="translate(56,35)"/>
<path d="M0 0 C0.66 0.33 1.32 0.66 2 1 C2 1.66 2 2.32 2 3 C0.3603125 3.2165625 0.3603125 3.2165625 -1.3125 3.4375 C-4.93122987 3.88288104 -4.93122987 3.88288104 -8 5 C-7.67 3.35 -7.34 1.7 -7 0 C-3.83299069 -1.05566977 -3.03571759 -0.97926374 0 0 Z " fill="#93B3BD" transform="translate(19,49)"/>
<path d="M0 0 C1.85776765 3.13498292 2.20140476 5.37471432 2 9 C0.35 9.66 -1.3 10.32 -3 11 C-2.69078116 9.54096742 -2.37751201 8.08279278 -2.0625 6.625 C-1.88847656 5.81289063 -1.71445313 5.00078125 -1.53515625 4.1640625 C-1 2 -1 2 0 0 Z " fill="#939EA6" transform="translate(12,28)"/>
<path d="M0 0 C-0.33 0.66 -0.66 1.32 -1 2 C-3 2.33333333 -5 2.66666667 -7 3 C-7.33 3.66 -7.66 4.32 -8 5 C-8.99 4.34 -9.98 3.68 -11 3 C-11 2.01 -11 1.02 -11 0 C-10.01 0.33 -9.02 0.66 -8 1 C-7.175 0.67 -6.35 0.34 -5.5 0 C-3 -1 -3 -1 0 0 Z " fill="#6E8B9A" transform="translate(20,52)"/>
<path d="M0 0 C2.0625 0.4375 2.0625 0.4375 4 1 C4 2.98 4 4.96 4 7 C3.01 7.495 3.01 7.495 2 8 C1.67 7.01 1.34 6.02 1 5 C0.34 6.32 -0.32 7.64 -1 9 C-1.09765625 2.84765625 -1.09765625 2.84765625 -1 1 C-0.67 0.67 -0.34 0.34 0 0 Z " fill="#A3AFB6" transform="translate(59,31)"/>
<path d="M0 0 C0.763125 0.309375 1.52625 0.61875 2.3125 0.9375 C4.18789677 1.67893593 6.08684652 2.36228217 8 3 C8.6875 5.0625 8.6875 5.0625 9 7 C7.35 7 5.7 7 4 7 C4 6.01 4 5.02 4 4 C3.34 3.67 2.68 3.34 2 3 C1.67 3.99 1.34 4.98 1 6 C0.67 4.02 0.34 2.04 0 0 Z " fill="#8C8F98" transform="translate(27,13)"/>
<path d="M0 0 C0.99 0.99 1.98 1.98 3 3 C1.95125002 5.62187494 1.35068687 6.79371361 -1.125 8.25 C-1.74375 8.4975 -2.3625 8.745 -3 9 C-2.5020163 5.26512223 -2.12508244 3.18762365 0 0 Z " fill="#FEFEFE" transform="translate(4,15)"/>
<path d="M0 0 C0.33 0.99 0.66 1.98 1 3 C1.66 3 2.32 3 3 3 C2.67 4.65 2.34 6.3 2 8 C-0.475 7.01 -0.475 7.01 -3 6 C-1.125 1.125 -1.125 1.125 0 0 Z " fill="#55606F" transform="translate(20,54)"/>
<path d="M0 0 C0.598125 0.639375 1.19625 1.27875 1.8125 1.9375 C3.90810337 4.20310389 3.90810337 4.20310389 7 5 C6.67 6.32 6.34 7.64 6 9 C5.67 8.01 5.34 7.02 5 6 C2.49552484 4.78130071 2.49552484 4.78130071 0 4 C-0.99 5.32 -1.98 6.64 -3 8 C-2.45276317 4.62537285 -1.9451 2.91765 0 0 Z " fill="#667E8B" transform="translate(53,22)"/>
<path d="M0 0 C0.185625 0.9590625 0.185625 0.9590625 0.375 1.9375 C0.684375 2.9584375 0.684375 2.9584375 1 4 C1.66 4.33 2.32 4.66 3 5 C1.68 6.32 0.36 7.64 -1 9 C-1.66 8.67 -2.32 8.34 -3 8 C-2.74438677 5.6568787 -2.40729228 3.32156597 -2 1 C-1.34 0.67 -0.68 0.34 0 0 Z " fill="#B7BCBF" transform="translate(11,14)"/>
<path d="M0 0 C0.66 0.33 1.32 0.66 2 1 C0 4 0 4 -3 5 C-4.22969878 8.51190809 -4.22969878 8.51190809 -5 12 C-5.99 11.34 -6.98 10.68 -8 10 C-6.44303593 6.17836093 -3.96591316 3.81381505 -1 1 C-0.67 0.67 -0.34 0.34 0 0 Z " fill="#FDFDFD" transform="translate(13,5)"/>
<path d="M0 0 C0.99 0.33 1.98 0.66 3 1 C2 3 1 5 0 7 C-1.32 6.34 -2.64 5.68 -4 5 C-2.68 3.35 -1.36 1.7 0 0 Z " fill="#94B2BA" transform="translate(31,5)"/>
<path d="M0 0 C2.475 0.99 2.475 0.99 5 2 C5 2.99 5 3.98 5 5 C2.5 6.6875 2.5 6.6875 0 8 C0 5.36 0 2.72 0 0 Z " fill="#3F4553" transform="translate(48,51)"/>
<path d="M0 0 C2.4375 0.1875 2.4375 0.1875 5 1 C6.3125 3.0625 6.3125 3.0625 7 5 C5.02 5 3.04 5 1 5 C1.66 3.68 2.32 2.36 3 1 C0.66924071 1.95865509 0.66924071 1.95865509 -1 5 C-1 1 -1 1 0 0 Z " fill="#141822" transform="translate(37,41)"/>
<path d="M0 0 C1.65 0 3.3 0 5 0 C5.33 0.99 5.66 1.98 6 3 C5.01 3.33 4.02 3.66 3 4 C2.01 4.66 1.02 5.32 0 6 C-0.66 5.34 -1.32 4.68 -2 4 C-1.34 2.68 -0.68 1.36 0 0 Z " fill="#363844" transform="translate(25,29)"/>
<path d="M0 0 C1.06016453 3.1804936 1.04507457 3.95978307 0 7 C-0.99 8.485 -0.99 8.485 -2 10 C-2.99 9.67 -3.98 9.34 -5 9 C-4.34 7.35 -3.68 5.7 -3 4 C-2.34 4 -1.68 4 -1 4 C-0.67 2.68 -0.34 1.36 0 0 Z " fill="#8B8E94" transform="translate(11,21)"/>
<path d="M0 0 C0.66 0.33 1.32 0.66 2 1 C2 1.66 2 2.32 2 3 C1.01 3 0.02 3 -1 3 C-1.33 5.31 -1.66 7.62 -2 10 C-2.99 10 -3.98 10 -5 10 C-3.14285714 2.42857143 -3.14285714 2.42857143 0 0 Z " fill="#65727D" transform="translate(16,16)"/>
<path d="M0 0 C1.32 0.33 2.64 0.66 4 1 C4 1.66 4 2.32 4 3 C2.25 4.6875 2.25 4.6875 0 6 C-2.25 5.6875 -2.25 5.6875 -4 5 C-4 4.34 -4 3.68 -4 3 C-3.01 2.67 -2.02 2.34 -1 2 C-0.67 1.34 -0.34 0.68 0 0 Z " fill="#5D7585" transform="translate(40,1)"/>
<path d="M0 0 C-1.485 2.475 -1.485 2.475 -3 5 C-3.99 4.67 -4.98 4.34 -6 4 C-6.33 3.01 -6.66 2.02 -7 1 C-3.375 -1.125 -3.375 -1.125 0 0 Z " fill="#D6CBCA" transform="translate(48,24)"/>
<path d="M0 0 C0.99 0 1.98 0 3 0 C2.42655063 2.86724686 2.1385485 3.8614515 0 6 C-1.32 6 -2.64 6 -4 6 C-3.34 4.68 -2.68 3.36 -2 2 C-1.34 2 -0.68 2 0 2 C0 1.34 0 0.68 0 0 Z " fill="#282D3A" transform="translate(48,41)"/>
<path d="M0 0 C0.33 0.99 0.66 1.98 1 3 C0.01 4.485 0.01 4.485 -1 6 C-3.625 6.1875 -3.625 6.1875 -6 6 C-4.75453595 2.26360784 -3.36595047 1.81243487 0 0 Z " fill="#F4F2F0" transform="translate(6,34)"/>
<path d="M0 0 C2.475 0.99 2.475 0.99 5 2 C5 3.98 5 5.96 5 8 C4.01 6.68 3.02 5.36 2 4 C1.34 4.66 0.68 5.32 0 6 C-0.66 4.68 -1.32 3.36 -2 2 C-1.34 2 -0.68 2 0 2 C0 1.34 0 0.68 0 0 Z " fill="#515561" transform="translate(42,13)"/>
<path d="M0 0 C0.99 0 1.98 0 3 0 C2.125 4.75 2.125 4.75 1 7 C0.34 7 -0.32 7 -1 7 C-1.04254356 5.00045254 -1.04080783 2.99958364 -1 1 C-0.67 0.67 -0.34 0.34 0 0 Z " fill="#8D9CA4" transform="translate(10,45)"/>
<path d="M0 0 C0.66 0.33 1.32 0.66 2 1 C2.66 1 3.32 1 4 1 C4 1.99 4 2.98 4 4 C3.34 4 2.68 4 2 4 C2 5.32 2 6.64 2 8 C-0.31 8 -2.62 8 -5 8 C-5 7.67 -5 7.34 -5 7 C-3.02 7 -1.04 7 1 7 C0.67 4.69 0.34 2.38 0 0 Z " fill="#918A91" transform="translate(43,33)"/>
<path d="M0 0 C1.7074998 1.28062485 3.37373596 2.61767557 5 4 C5 4.66 5 5.32 5 6 C3.35 5.67 1.7 5.34 0 5 C-0.33 5.66 -0.66 6.32 -1 7 C-1.625 4.625 -1.625 4.625 -2 2 C-1.34 1.34 -0.68 0.68 0 0 Z " fill="#97A5AE" transform="translate(21,15)"/>
<path d="M0 0 C1.65 0.33 3.3 0.66 5 1 C5.33 1.99 5.66 2.98 6 4 C3.69 4 1.38 4 -1 4 C-0.67 2.68 -0.34 1.36 0 0 Z " fill="#A3A5B1" transform="translate(26,59)"/>
<path d="M0 0 C0.99 0.33 1.98 0.66 3 1 C2.34 2.65 1.68 4.3 1 6 C0.34 6 -0.32 6 -1 6 C-1.66 6.99 -2.32 7.98 -3 9 C-2.25 2.25 -2.25 2.25 0 0 Z " fill="#82969F" transform="translate(36,35)"/>
<path d="M0 0 C0.99 0 1.98 0 3 0 C3 1.98 3 3.96 3 6 C1.68 5.67 0.36 5.34 -1 5 C-0.67 3.35 -0.34 1.7 0 0 Z " fill="#91A1A8" transform="translate(15,19)"/>
<path d="M0 0 C0.66 0.33 1.32 0.66 2 1 C2 2.98 2 4.96 2 7 C0.0625 6.625 0.0625 6.625 -2 6 C-2.33 5.34 -2.66 4.68 -3 4 C-2.01 4 -1.02 4 0 4 C0 2.68 0 1.36 0 0 Z " fill="#151822" transform="translate(30,38)"/>
<path d="M0 0 C1.65 0.33 3.3 0.66 5 1 C3.8125 2.5625 3.8125 2.5625 2 4 C-0.6875 3.6875 -0.6875 3.6875 -3 3 C-2.01 2.67 -1.02 2.34 0 2 C0 1.34 0 0.68 0 0 Z " fill="#465763" transform="translate(36,30)"/>
<path d="M0 0 C3.3 0 6.6 0 10 0 C10 0.99 10 1.98 10 3 C8.5199159 2.88637738 7.04089926 2.75877092 5.5625 2.625 C4.73878906 2.55539062 3.91507813 2.48578125 3.06640625 2.4140625 C2.38449219 2.27742187 1.70257812 2.14078125 1 2 C0.67 1.34 0.34 0.68 0 0 Z " fill="#E7E0E0" transform="translate(27,0)"/>
<path d="M0 0 C1.32 0.66 2.64 1.32 4 2 C3.67 2.66 3.34 3.32 3 4 C0.4375 4.625 0.4375 4.625 -2 5 C-2.33 4.34 -2.66 3.68 -3 3 C-2.34 3 -1.68 3 -1 3 C-0.67 2.01 -0.34 1.02 0 0 Z " fill="#BBBAC4" transform="translate(25,42)"/>
<path d="M0 0 C1.2077558 3.62326739 0.54311128 4.64146369 -1 8 C-1.66 8 -2.32 8 -3 8 C-3.75 6.25 -3.75 6.25 -4 4 C-2.0625 1.75 -2.0625 1.75 0 0 Z " fill="#F0EBEB" transform="translate(55,30)"/>
<path d="M0 0 C0.66 0 1.32 0 2 0 C2 2.97 2 5.94 2 9 C1.01 9.495 1.01 9.495 0 10 C-1.231394 6.30581799 -0.64432764 3.7943739 0 0 Z " fill="#A1BAC2" transform="translate(18,18)"/>
<path d="M0 0 C3 1 3 1 4.75 3.9375 C5.1625 4.948125 5.575 5.95875 6 7 C5.67 7.66 5.34 8.32 5 9 C0 3.375 0 3.375 0 0 Z " fill="#0A0F16" transform="translate(41,5)"/>
<path d="M0 0 C1.65 0 3.3 0 5 0 C5 1.65 5 3.3 5 5 C3.0625 4.1875 3.0625 4.1875 1 3 C0.67 2.01 0.34 1.02 0 0 Z " fill="#3E404A" transform="translate(41,41)"/>
<path d="M0 0 C0.99 0 1.98 0 3 0 C3 1.32 3 2.64 3 4 C1.68 4.33 0.36 4.66 -1 5 C-0.67 3.35 -0.34 1.7 0 0 Z " fill="#B6B7C2" transform="translate(17,43)"/>
<path d="M0 0 C0 3 0 3 -2 6 C-4 5 -4 5 -5 2 C-3.35 1.34 -1.7 0.68 0 0 Z " fill="#B9AFB0" transform="translate(19,32)"/>
<path d="M0 0 C0 0.66 0 1.32 0 2 C-0.99 2 -1.98 2 -3 2 C-3 2.66 -3 3.32 -3 4 C-3.66 4 -4.32 4 -5 4 C-5.33 2.68 -5.66 1.36 -6 0 C-3.50907189 -1.24546405 -2.58919267 -0.7767578 0 0 Z " fill="#A28286" transform="translate(36,30)"/>
<path d="M0 0 C1.32 0.33 2.64 0.66 4 1 C3.34 1.66 2.68 2.32 2 3 C2.33 3.66 2.66 4.32 3 5 C0.03 4.505 0.03 4.505 -3 4 C-3 3.34 -3 2.68 -3 2 C-2.01 2 -1.02 2 0 2 C0 1.34 0 0.68 0 0 Z " fill="#DCC6C5" transform="translate(26,24)"/>
<path d="M0 0 C3.16130459 4.21507278 3.3367697 5.06071112 3 10 C2.34 10 1.68 10 1 10 C0.67 6.7 0.34 3.4 0 0 Z " fill="#8DA7B2" transform="translate(48,4)"/>
<path d="M0 0 C0.99 0 1.98 0 3 0 C3.185625 0.9590625 3.185625 0.9590625 3.375 1.9375 C3.684375 2.9584375 3.684375 2.9584375 4 4 C4.66 4.33 5.32 4.66 6 5 C4.68 5.99 3.36 6.98 2 8 C2.04125 7.236875 2.0825 6.47375 2.125 5.6875 C2.22080824 2.77281584 2.22080824 2.77281584 0 0 Z " fill="#7E959F" transform="translate(21,5)"/>
</svg>
